# xmcd CD database file
# Copyright (C) 1993-1998 Ti Kan
#
# Track frame offsets:
#  150
#  25087
#  57150
#  76877
#  100237
#  129995
#  153357
#  180220
#  203037
#  241700
#  259430
#  284667
#
# Disc length: 4172 seconds
#
# Revision: 1
# Processed by: cddbd v1.4b41PL1 Copyright (c) Steve Scherf et al.
# Submitted via: KiC 2.1 - (C) 1996-1998 Alwin Hoogerdijk
#
DISCID=96104a0c
DTITLE=Various Artist - Blues On Fire
DYEAR=1900
DGENRE=
TTITLE0=Lurrie Bell - A Man And The Blues
TTITLE1=Buddy Guy - Blues At My Baby's house
TTITLE2=Phillip Walker - She Torture Me
TTITLE3=Charlie Sayles - Small Room
TTITLE4=Louisiana Red - Down So Long
TTITLE5=U.P. Wilson - Bad Luck and Trouble
TTITLE6=Butler Twins - Pursue Your Dreams
TTITLE7=Smokey Wilson - Why Don't You Let Me Be
TTITLE8=Johnny Mars - Desert Island
TTITLE9=Victor Walker - I Can't Live Happy
TTITLE10=Carey Bell - It's So Easy To Love You
TTITLE11=Byther Smith - Play The Blues In Paris
EXTD=
EXTT0=
EXTT1=
EXTT2=
EXTT3=
EXTT4=
EXTT5=
EXTT6=
EXTT7=
EXTT8=
EXTT9=
EXTT10=
EXTT11=
PLAYORDER=
